<svg xmlns="http://www.w3.org/2000/svg" version="1.1" xmlns:xlink="http://www.w3.org/1999/xlink" xmlns:svgjs="http://svgjs.dev/svgjs" width="1000" height="305" viewBox="0 0 1000 305"><g transform="matrix(1,0,0,1,-0.6060595739814403,0.6136845442411243)"><svg viewBox="0 0 396 121" data-background-color="#2d0d6d" preserveAspectRatio="xMidYMid meet" height="305" width="1000" xmlns="http://www.w3.org/2000/svg" xmlns:xlink="http://www.w3.org/1999/xlink"><g id="tight-bounds" transform="matrix(1,0,0,1,0.23999959129665172,-0.2434617372235266)"><svg viewBox="0 0 395.5199999999999 121.48661346747681" height="121.48661346747681" width="395.5199999999999"><g><svg viewBox="0 0 625.0181658108334 191.97851011329908" height="121.48661346747681" width="395.5199999999999"><g transform="matrix(1,0,0,1,229.4981658108333,56.25665231692352)"><svg viewBox="0 0 395.52 79.46520547945204" height="79.46520547945204" width="395.52"><g id="textblocktransform"><svg viewBox="0 0 395.52 79.46520547945204" height="79.46520547945204" width="395.52" id="textblock"><g><svg viewBox="0 0 395.52 79.46520547945204" height="79.46520547945204" width="395.52"><g transform="matrix(1,0,0,1,0,0)"><svg width="395.52" viewBox="3 -37.099998474121094 186.88999938964844 37.39999771118164" height="79.46520547945204" data-palette-color="#a437db"><g class="undefined-text-0" data-fill-palette-color="primary" id="text-0"><path d="M14.3 0.3L14.3 0.3Q13.2 0.3 11.68 0.23 10.15 0.15 8.55 0.03 6.95-0.1 5.53-0.25 4.1-0.4 3.15-0.6L3.15-0.6 3.15-3.65Q4.4-3.55 6.2-3.45 8-3.35 10.08-3.3 12.15-3.25 14.15-3.25L14.15-3.25Q16.4-3.25 18.2-3.7 20-4.15 21.08-5.35 22.15-6.55 22.15-8.8L22.15-8.8 22.15-11.3Q22.15-13.85 20.85-15.18 19.55-16.5 16.65-16.5L16.65-16.5 12.7-16.5Q8.15-16.5 5.58-18.5 3-20.5 3-25.4L3-25.4 3-27.5Q3-32.7 5.8-34.9 8.6-37.1 13.7-37.1L13.7-37.1Q15.3-37.1 17.3-36.93 19.3-36.75 21.18-36.52 23.05-36.3 24.3-36.05L24.3-36.05 24.3-33Q22.1-33.2 19.33-33.35 16.55-33.5 14.1-33.5L14.1-33.5Q11.85-33.5 10.2-32.98 8.55-32.45 7.68-31.13 6.8-29.8 6.8-27.35L6.8-27.35 6.8-25.65Q6.8-22.6 8.4-21.45 10-20.3 12.85-20.3L12.85-20.3 17.1-20.3Q20.15-20.3 22.1-19.2 24.05-18.1 25-16.18 25.95-14.25 25.95-11.75L25.95-11.75 25.95-8.9Q25.95-5.2 24.38-3.2 22.8-1.2 20.18-0.45 17.55 0.3 14.3 0.3ZM36.75 0L32.75 0 32.75-36.8 36.75-36.8 36.75-20.15 43.2-20.15 53.3-36.8 57.5-36.8 46.35-18.4 57.65 0 53.4 0 43.2-16.55 36.75-16.55 36.75 0ZM76.3 0.3L76.3 0.3Q72.75 0.3 70.07-0.38 67.4-1.05 65.62-2.95 63.85-4.85 62.97-8.55 62.1-12.25 62.1-18.25L62.1-18.25Q62.1-24.25 63-27.98 63.9-31.7 65.7-33.68 67.5-35.65 70.15-36.38 72.8-37.1 76.3-37.1L76.3-37.1Q79.9-37.1 82.57-36.38 85.25-35.65 87.02-33.68 88.8-31.7 89.65-27.98 90.5-24.25 90.5-18.25L90.5-18.25Q90.5-12.25 89.62-8.55 88.75-4.85 86.97-2.95 85.2-1.05 82.55-0.38 79.9 0.3 76.3 0.3ZM76.3-3.25L76.3-3.25Q79.09-3.25 81.05-3.8 83-4.35 84.22-5.93 85.45-7.5 86-10.45 86.55-13.4 86.55-18.25L86.55-18.25Q86.55-23.3 85.97-26.35 85.4-29.4 84.17-30.95 82.95-32.5 81.02-33 79.09-33.5 76.3-33.5L76.3-33.5Q73.7-33.5 71.77-33 69.84-32.5 68.57-30.95 67.3-29.4 66.67-26.35 66.05-23.3 66.05-18.25L66.05-18.25Q66.05-13.4 66.57-10.45 67.09-7.5 68.3-5.93 69.5-4.35 71.47-3.8 73.45-3.25 76.3-3.25ZM110.59 0.3L110.59 0.3Q107.04 0.3 104.37-0.38 101.69-1.05 99.92-2.95 98.14-4.85 97.27-8.55 96.39-12.25 96.39-18.25L96.39-18.25Q96.39-24.25 97.29-27.98 98.19-31.7 99.99-33.68 101.79-35.65 104.44-36.38 107.09-37.1 110.59-37.1L110.59-37.1Q114.19-37.1 116.87-36.38 119.54-35.65 121.32-33.68 123.09-31.7 123.94-27.98 124.79-24.25 124.79-18.25L124.79-18.25Q124.79-12.25 123.92-8.55 123.04-4.85 121.27-2.95 119.49-1.05 116.84-0.38 114.19 0.3 110.59 0.3ZM110.59-3.25L110.59-3.25Q113.39-3.25 115.34-3.8 117.29-4.35 118.52-5.93 119.74-7.5 120.29-10.45 120.84-13.4 120.84-18.25L120.84-18.25Q120.84-23.3 120.27-26.35 119.69-29.4 118.47-30.95 117.24-32.5 115.32-33 113.39-33.5 110.59-33.5L110.59-33.5Q107.99-33.5 106.07-33 104.14-32.5 102.87-30.95 101.59-29.4 100.97-26.35 100.34-23.3 100.34-18.25L100.34-18.25Q100.34-13.4 100.87-10.45 101.39-7.5 102.59-5.93 103.79-4.35 105.77-3.8 107.74-3.25 110.59-3.25ZM145.39 0L131.59 0 131.59-36.8 144.89-36.8Q149.64-36.8 152.02-34.45 154.39-32.1 154.39-27.35L154.39-27.35Q154.39-25.05 153.69-23.35 152.99-21.65 151.81-20.58 150.64-19.5 149.19-19.1L149.19-19.1Q150.19-18.85 151.31-18.28 152.44-17.7 153.44-16.65 154.44-15.6 155.06-14 155.69-12.4 155.69-10.2L155.69-10.2Q155.69-6.3 154.44-4.08 153.19-1.85 150.89-0.93 148.59 0 145.39 0L145.39 0ZM135.59-17.35L135.59-3.55 145.29-3.55Q147.29-3.55 148.77-4.17 150.24-4.8 151.06-6.38 151.89-7.95 151.89-10.85L151.89-10.85Q151.89-12.9 151.02-14.35 150.14-15.8 148.64-16.57 147.14-17.35 145.29-17.35L145.29-17.35 135.59-17.35ZM135.59-33.2L135.59-20.5 145.14-20.5Q147.49-20.5 149.02-22.2 150.54-23.9 150.59-26.8L150.59-26.8Q150.69-30.35 149.06-31.78 147.44-33.2 144.89-33.2L144.89-33.2 135.59-33.2ZM163.69 0L159.59 0 172.19-36.8 177.29-36.8 189.89 0 185.79 0 182.09-10.5 167.29-10.5 163.69 0ZM174.74-33.3L168.29-14.1 181.09-14.1 174.74-33.3Z" fill="#a437db" data-fill-palette-color="primary"></path></g></svg></g></svg></g></svg></g></svg></g><g><svg viewBox="0 0 191.97851011329908 191.97851011329908" height="191.97851011329908" width="191.97851011329908"><g><svg></svg></g><g id="icon-0"><svg viewBox="0 0 191.97851011329908 191.97851011329908" height="191.97851011329908" width="191.97851011329908"><g><path d="M0 95.989c0-53.013 42.976-95.989 95.989-95.989 53.013 0 95.989 42.976 95.99 95.989 0 53.013-42.976 95.989-95.99 95.99-53.013 0-95.989-42.976-95.989-95.99zM95.989 184.812c49.056 0 88.823-39.767 88.823-88.823 0-49.056-39.767-88.823-88.823-88.823-49.056 0-88.823 39.767-88.823 88.823 0 49.056 39.767 88.823 88.823 88.823z" data-fill-palette-color="accent" fill="#bb84e8" stroke="transparent"></path></g><g transform="matrix(1,0,0,1,41.95533343379272,41.82386246213866)"><svg viewBox="0 0 108.06784324571365 108.33078518902175" height="108.33078518902175" width="108.06784324571365"><g><svg xmlns="http://www.w3.org/2000/svg" xmlns:xlink="http://www.w3.org/1999/xlink" version="1.1" x="0" y="0" viewBox="3.653552532196045 2.709099292755127 58.55344009399414 58.69590759277344" style="enable-background:new 0 0 64 64;" xml:space="preserve" height="108.33078518902175" width="108.06784324571365" class="icon-s-0" data-fill-palette-color="accent" id="s-0"><rect x="9" y="7" width="2" height="2" fill="#bb84e8" data-fill-palette-color="accent"></rect><rect x="13" y="7" width="2" height="2" fill="#bb84e8" data-fill-palette-color="accent"></rect><rect x="17" y="7" width="2" height="2" fill="#bb84e8" data-fill-palette-color="accent"></rect><path d="M51 24h2c0-1.654 1.346-3 3-3v-2c-1.654 0-3-1.346-3-3h-2c0 1.654-1.346 3-3 3v2C49.654 21 51 22.346 51 24zM52 18.969c0.292 0.393 0.638 0.739 1.031 1.031-0.393 0.292-0.739 0.638-1.031 1.031-0.292-0.393-0.638-0.739-1.031-1.031C51.362 19.708 51.708 19.362 52 18.969z" fill="#bb84e8" data-fill-palette-color="accent"></path><path d="M57 13h2c0-1.654 1.346-3 3-3V8c-1.654 0-3-1.346-3-3h-2c0 1.654-1.346 3-3 3v2C55.654 10 57 11.346 57 13zM58 7.969C58.292 8.362 58.638 8.708 59.031 9 58.638 9.292 58.292 9.638 58 10.031 57.708 9.638 57.362 9.292 56.969 9 57.362 8.708 57.708 8.362 58 7.969z" fill="#bb84e8" data-fill-palette-color="accent"></path><path d="M39.419 59.304c-10.048-0.85-21.536-4.617-30.731-10.08l-2.727-1.619c0.406-0.95 0.641-1.943 0.87-2.91 0.068-0.29 0.137-0.579 0.209-0.865 0.211-0.827 0.445-2.175 0.716-3.734 0.39-2.245 0.875-5.039 1.313-6.162l5.99-15.352c0.131-0.335 0.25-0.696 0.372-1.065 0.324-0.986 0.66-2.007 1.288-2.559 0.354-0.312 0.815-0.544 1.26-0.749 0.052-0.023 0.101-0.051 0.146-0.083l11.853-9.077c0.594-0.457 1.418-0.451 2.004 0.02l5.944 4.755c0.376 0.301 0.598 0.75 0.608 1.232s-0.191 0.94-0.554 1.258l-3.792 3.317c-0.644 0.563-1.616 0.528-2.219-0.073-0.346-0.346-0.516-0.822-0.468-1.309 0.049-0.486 0.31-0.921 0.717-1.192l0.336-0.225-1.111-1.662-0.335 0.224c-0.907 0.604-1.489 1.573-1.597 2.658s0.273 2.149 1.044 2.92c1.345 1.346 3.52 1.418 4.949 0.165l3.189-2.79 0.981 1.472-5.991 5.136-7.157-0.895c0.109-0.512 0.234-1.021 0.38-1.525l-1.92-0.557c-0.671 2.309-0.981 4.698-0.926 7.103 0.03 1.291 0.168 2.577 0.302 3.821 0.156 1.462 0.304 2.843 0.295 4.242-0.027 4.189-1.65 8.1-4.341 10.459l1.318 1.504c1.905-1.67 3.316-3.923 4.152-6.5 0.302-0.101 0.686-0.094 1.063-0.062 1.313 0.117 2.588 0.477 3.785 1.016-0.488 0.784-0.886 1.621-1.182 2.503l1.896 0.637c0.258-0.769 0.612-1.497 1.047-2.178 0.024 0.016 0.05 0.028 0.073 0.044l0.959-1.399c1.884-2.11 4.66-3.581 7.889-4.064 4.835-0.725 9.33 0.933 11.751 4.317l1.627-1.164c-1.004-1.403-2.306-2.55-3.808-3.42 2.897-2.411 7.09-3.279 10.665-2.037l0.656-1.889c-4.508-1.57-9.844-0.3-13.271 2.994-2.38-0.907-5.106-1.201-7.915-0.779-3.739 0.558-6.961 2.292-9.154 4.787-1.514-0.741-3.157-1.208-4.843-1.359-0.221-0.02-0.458-0.029-0.7-0.027 0.208-1.087 0.325-2.213 0.332-3.369 0.01-1.514-0.151-3.016-0.307-4.469-0.129-1.203-0.262-2.447-0.29-3.655-0.024-1.004 0.032-2.005 0.148-2.998l7.666 0.958C33.917 22.997 33.959 23 34 23c0.237 0 0.469-0.085 0.65-0.241l7-6c0.385-0.329 0.462-0.893 0.182-1.313l-1.754-2.632c0.299-0.548 0.471-1.161 0.457-1.803-0.023-1.076-0.52-2.079-1.359-2.751l-5.943-4.755c-1.308-1.046-3.148-1.062-4.474-0.042l-11.323 8.712-0.37 0.253c-0.535 0.249-1.143 0.567-1.666 1.027-1.036 0.911-1.479 2.252-1.868 3.436-0.109 0.333-0.217 0.66-0.335 0.964l-5.99 15.352c-0.511 1.31-0.974 3.973-1.421 6.547-0.253 1.455-0.491 2.83-0.683 3.583-0.076 0.297-0.147 0.597-0.218 0.897-0.28 1.186-0.545 2.305-1.097 3.257-0.274 0.474-0.116 1.081 0.354 1.36l3.523 2.093c9.443 5.609 21.25 9.479 31.585 10.353 0.801 0.068 1.81 0.108 2.962 0.108 5.749 0 15.023-1.006 19.423-4.633l-1.271-1.543C55.82 58.975 44.479 59.73 39.419 59.304z" fill="#bb84e8" data-fill-palette-color="accent"></path></svg></g></svg></g></svg></g></svg></g></svg></g><defs></defs></svg><rect width="395.5199999999999" height="121.48661346747681" fill="none" stroke="none" visibility="hidden"></rect></g></svg></g></svg>